<?xml version="1.0" encoding="UTF-8"?>
<svg width="40px" height="40px" viewBox="0 0 40 40" version="1.1" xmlns="http://www.w3.org/2000/svg" xmlns:xlink="http://www.w3.org/1999/xlink">
    <title>Github</title>
    <defs>
        <polygon id="path-1" points="0 0 26 0 26 26 0 26"></polygon>
    </defs>
    <g id="Github" stroke="none" stroke-width="1" fill="none" fill-rule="evenodd">
        <rect id="Rectangle-Copy-2" x="0" y="0" width="40" height="40"></rect>
        <g id="Group-3" transform="translate(7.000000, 7.000000)">
            <mask id="mask-2" fill="white">
                <use xlink:href="#path-1"></use>
            </mask>
            <g id="Clip-2"></g>
            <path d="M0,13.3302211 C0,19.2183968 3.72443217,24.2138544 8.89091467,25.9771978 C9.54131369,26.0991181 9.77833026,25.6875349 9.77833026,25.334048 C9.77833026,25.0182009 9.76715777,24.1794877 9.76077348,23.0674767 C6.14487416,23.8726414 5.38195212,21.2804039 5.38195212,21.2804039 C4.79060773,19.7404447 3.93830571,19.3313163 3.93830571,19.3313163 C2.75801105,18.5040587 4.0276857,18.5204238 4.0276857,18.5204238 C5.33247391,18.6153416 6.01878453,19.8942769 6.01878453,19.8942769 C7.17833026,21.930918 9.06089626,21.3425914 9.80227133,21.0021966 C9.9203806,20.1405722 10.2555556,19.5530639 10.6274401,19.2200334 C7.74094537,18.8837298 4.70601596,17.7398069 4.70601596,12.6322481 C4.70601596,11.1773875 5.21276857,9.98764218 6.04432167,9.05564771 C5.91025169,8.71852592 5.46414979,7.36349271 6.17120933,5.52814276 C6.17120933,5.52814276 7.26292204,5.1697463 9.74640884,6.89463158 C10.7830571,6.59842262 11.8955187,6.4511364 13.000798,6.44540861 C14.1044813,6.4511364 15.2169429,6.59842262 16.2551872,6.89463158 C18.737078,5.1697463 19.8263966,5.52814276 19.8263966,5.52814276 C20.5358502,7.36349271 20.0897483,8.71852592 19.9556783,9.05564771 C20.7888275,9.98764218 21.292388,11.1773875 21.292388,12.6322481 C21.292388,17.752899 18.2526703,18.8796385 15.3565991,19.209396 C15.82345,19.6209792 16.2392265,20.4343264 16.2392265,21.6780767 C16.2392265,23.4594217 16.2232658,24.8970989 16.2232658,25.334048 C16.2232658,25.6908079 16.4570902,26.1056641 17.1170657,25.9755613 C22.2779619,24.2089449 26,19.2167603 26,13.3302211 C26,5.96754665 20.1791283,0 12.999202,0 C5.8208717,0 0,5.96754665 0,13.3302211 Z" id="Fill-1" fill="#082229" mask="url(#mask-2)" class="fillable"></path>
        </g>
    </g>
</svg>