<?xml version="1.0" encoding="UTF-8"?>
<svg width="40px" height="40px" viewBox="0 0 40 40" version="1.1" xmlns="http://www.w3.org/2000/svg" xmlns:xlink="http://www.w3.org/1999/xlink">
    <title>Medium</title>
    <g id="Medium" stroke="none" stroke-width="1" fill="none" fill-rule="evenodd">
        <rect id="Rectangle-Copy" x="0" y="0" width="40" height="40"></rect>
        <g id="medium-seeklogo.com" transform="translate(4.000000, 12.000000)" fill="#082229" fill-rule="nonzero" class="fillable">
            <path d="M9.02511426,0 C14.0095627,0 18.0499219,4.25353039 18.0499219,9.50016027 C18.0499219,14.7467902 14.0092561,19 9.02511426,19 C4.04097237,19 0,14.7467902 0,9.50016027 C0,4.25353039 4.04066575,0 9.02511426,0 Z M23.4375785,0.556494744 C25.9298027,0.556494744 27.9501356,4.56030773 27.9501356,9.50016027 L27.9504422,9.50016027 C27.9504422,14.4387305 25.9301094,18.4438257 23.4378851,18.4438257 C20.9456609,18.4438257 18.925328,14.4387305 18.925328,9.50016027 C18.925328,4.56158997 20.9453542,0.556494744 23.4375785,0.556494744 Z M30.4129241,1.48804643 C31.28925,1.48804643 32,5.07512948 32,9.50016027 C32,13.9239088 31.2895566,17.5122741 30.4129241,17.5122741 C29.5362916,17.5122741 28.8261549,13.9248705 28.8261549,9.50016027 C28.8261549,5.07545005 29.5365982,1.48804643 30.4129241,1.48804643 Z" id="Shape"></path>
        </g>
    </g>
</svg>