<?xml version="1.0" encoding="UTF-8"?>
<svg width="19px" height="12px" viewBox="0 0 19 12" version="1.1" xmlns="http://www.w3.org/2000/svg" xmlns:xlink="http://www.w3.org/1999/xlink">
    <title>Group</title>
    <g id="Blog" stroke="none" stroke-width="1" fill="none" fill-rule="evenodd">
        <g id="Desktop-HD" transform="translate(-1150.000000, -75.000000)" class="fillable" fill="#082229">
            <g id="Header">
                <g id="Menu-Icon" transform="translate(1150.000000, 75.000000)">
                    <g id="Group" transform="translate(0.534000, 0.160983)">
                        <path d="M3.177,9.10701705 C3.177,8.95401705 3.22,8.83601705 3.305,8.74901705 C3.39,8.66201705 3.507,8.61901705 3.658,8.61801705 L13.578,8.59101705 C13.726,8.59101705 13.843,8.63401705 13.929,8.72001705 C14.014,8.80701705 14.057,8.92501705 14.057,9.07701705 L14.057,9.64501705 C14.057,9.79601705 14.014,9.91501705 13.929,10.002017 C13.843,10.089017 13.726,10.133017 13.578,10.133017 L3.658,10.160017 C3.507,10.161017 3.39,10.117017 3.305,10.031017 C3.22,9.94501705 3.177,9.82601705 3.177,9.67401705 L3.177,9.10701705" id="Fill-1"></path>
                        <path d="M6.39488462e-14,0.523017045 C6.39488462e-14,0.370017045 0.043,0.252017045 0.127,0.165017045 C0.212,0.0780170455 0.33,0.0350170455 0.48,0.0340170455 L16.756,1.70454545e-05 C16.904,-0.000982954545 17.021,0.0420170455 17.107,0.129017045 C17.192,0.215017045 17.235,0.333017045 17.235,0.486017045 L17.235,1.05301705 C17.235,1.20501705 17.192,1.32401705 17.107,1.41101705 C17.021,1.49701705 16.904,1.54101705 16.756,1.54201705 L0.48,1.57601705 C0.33,1.57701705 0.212,1.53301705 0.127,1.44701705 C0.043,1.36101705 6.39488462e-14,1.24201705 6.39488462e-14,1.09001705 L6.39488462e-14,0.523017045" id="Fill-2"></path>
                    </g>
                </g>
            </g>
        </g>
    </g>
</svg>