<?xml version="1.0" encoding="utf-8"?>
<!-- Generator: Adobe Illustrator 25.1.0, SVG Export Plug-In . SVG Version: 6.00 Build 0)  -->
<svg width="58" height="58" version="1.1" id="Layer_1" xmlns="http://www.w3.org/2000/svg" xmlns:xlink="http://www.w3.org/1999/xlink" x="0px" y="0px"
	 viewBox="0 0 58 58" style="enable-background:new 0 0 58 58;" xml:space="preserve">
<style type="text/css">
	.circle{fill:none;stroke:#082229;stroke-width:2.5;stroke-miterlimit:10;}
	.letters{fill:#082229;}
</style>
<circle class="circle" cx="29" cy="29" r="27.3"/>
<desc>Created with Sketch.</desc>
<path id="Fill-2" class="letters" d="M38.7,22.9v14.2c0,0.2,0,0.4-0.1,0.6C38.5,37.9,38.3,38,38,38h-1.6c-0.3,0-0.6-0.1-0.6-0.3
	c-0.1-0.2-0.1-0.4-0.1-0.6V22.9h-4.4c-0.4,0-0.6-0.1-0.7-0.2s-0.2-0.3-0.2-0.7v-1.1c0-0.2,0-0.4,0.1-0.6s0.3-0.3,0.6-0.3h12
	c0.3,0,0.6,0.1,0.6,0.3c0.1,0.2,0.1,0.4,0.1,0.6V22c0,0.4,0,0.6-0.1,0.7s-0.3,0.2-0.7,0.2H38.7"/>
<path id="Fill-3" class="letters" d="M18.3,20.4L18.3,20.4C18.2,20.2,18,20,17.7,20H16c-0.2,0-0.4,0.1-0.5,0.2c-0.2,0.2-0.2,0.4-0.2,0.6
	v0.9L21,30c0.4,0.6,0.8,1.2,1.3,1.9c0.6,0.9,1.3,1.9,1.9,2.8c0.2,0.3,0.4,0.6,0.6,0.9l1.4,2.1c0.1,0.2,0.3,0.3,0.6,0.3h1.5
	c0.2,0,0.4-0.1,0.5-0.2c0.1-0.1,0.2-0.3,0.2-0.5v-0.8L18.3,20.4"/>
</svg>
