<?xml version="1.0" encoding="UTF-8"?>
<svg width="40px" height="40px" viewBox="0 0 40 40" version="1.1" xmlns="http://www.w3.org/2000/svg" xmlns:xlink="http://www.w3.org/1999/xlink">
    <!-- Generator: Sketch 41.1 (35376) - http://www.bohemiancoding.com/sketch -->
    <title>Logo</title>
    <desc>Created with Sketch.</desc>
    <defs></defs>
    <g id="Blog-Minimal" stroke="none" stroke-width="1" fill="none" fill-rule="evenodd">
        <g id="Desktop-HD" transform="translate(-259.000000, -60.000000)" fill="#082229">
            <g id="Header">
                <g id="Logo" transform="translate(259.000000, 60.000000)">
                    <path d="M20.0724324,37.4756757 C10.2810811,37.4756757 2.31567568,29.5102703 2.31567568,19.72 C2.31567568,9.92864865 10.2810811,1.96324324 20.0724324,1.96324324 C29.8627027,1.96324324 37.8281081,9.92864865 37.8281081,19.72 C37.8281081,29.5102703 29.8627027,37.4756757 20.0724324,37.4756757 M20.0724324,0.234594595 C9.32756757,0.234594595 0.585945946,8.97513514 0.585945946,19.72 C0.585945946,30.4648649 9.32756757,39.2054054 20.0724324,39.2054054 C30.8162162,39.2054054 39.5578378,30.4648649 39.5578378,19.72 C39.5578378,8.97513514 30.8162162,0.234594595 20.0724324,0.234594595" id="Fill-1"></path>
                    <path d="M26.6724324,16.6897297 L26.6724324,26.3556757 C26.6724324,26.5081081 26.6497297,26.6464865 26.6032432,26.7686486 C26.5567568,26.8908108 26.4162162,26.9524324 26.1816216,26.9524324 L25.1221622,26.9524324 C24.8864865,26.9524324 24.7459459,26.8908108 24.6994595,26.7686486 C24.6540541,26.6464865 24.6302703,26.5081081 24.6302703,26.3556757 L24.6302703,16.6897297 L21.652973,16.6897297 C21.387027,16.6897297 21.2172973,16.6518919 21.1459459,16.5751351 C21.0745946,16.4983784 21.0389189,16.3383784 21.0389189,16.092973 L21.0389189,15.3135135 C21.0389189,15.16 21.0616216,15.0227027 21.1081081,14.9005405 C21.1535135,14.7772973 21.2940541,14.7167568 21.5297297,14.7167568 L29.7113514,14.7167568 C29.947027,14.7167568 30.0897297,14.7772973 30.1416216,14.9005405 C30.1924324,15.0227027 30.2183784,15.16 30.2183784,15.3135135 L30.2183784,16.092973 C30.2183784,16.3383784 30.1848649,16.4983784 30.1178378,16.5751351 C30.0518919,16.6518919 29.8854054,16.6897297 29.6194595,16.6897297 L26.6724324,16.6897297" id="Fill-2"></path>
                    <path d="M12.7502703,14.9610811 L12.7502703,14.9610811 C12.6583784,14.7989189 12.52,14.7167568 12.3351351,14.7167568 L11.2,14.7167568 C11.0562162,14.7167568 10.9383784,14.7675676 10.8464865,14.8691892 C10.7545946,14.9718919 10.7081081,15.0832432 10.7081081,15.2064865 L10.7102703,15.8075676 L14.5848649,21.532973 C14.8713514,21.9567568 15.1589189,22.3827027 15.4443243,22.8 C15.8789189,23.4367568 16.3135135,24.08 16.7481081,24.7264865 C16.8854054,24.9308108 17.0259459,25.1383784 17.1654054,25.3459459 L18.1275676,26.7675676 C18.2194595,26.8886486 18.3491892,26.9524324 18.5210811,26.9524324 L19.5654054,26.9524324 C19.7081081,26.9524324 19.8281081,26.9016216 19.9264865,26.7989189 C20.0227027,26.6972973 20.0713514,26.5848649 20.0713514,26.4627027 L20.0713514,25.9318919 L12.7502703,14.9610811" id="Fill-3"></path>
                </g>
            </g>
        </g>
    </g>
</svg>