<?xml version="1.0" encoding="utf-8"?>
<!-- Generator: Adobe Illustrator 25.1.0, SVG Export Plug-In . SVG Version: 6.00 Build 0)  -->
<svg width="40" height="40" version="1.1" id="Layer_1" xmlns="http://www.w3.org/2000/svg" xmlns:xlink="http://www.w3.org/1999/xlink" x="0px" y="0px"
	 viewBox="0 0 40 40" style="enable-background:new 0 0 40 40;" xml:space="preserve">
<style type="text/css">
	.circle{fill:none;stroke:#082229;stroke-width:2;stroke-miterlimit:10;}
	.letters{fill:#082229;}
</style>
<circle class="circle" cx="19.9" cy="20" r="18.3"/>
<path id="Fill-2" class="letters" d="M26.4,15.9v9.5c0,0.1,0,0.3-0.1,0.4S26.1,26,25.9,26h-1c-0.2,0-0.4-0.1-0.4-0.2
	c-0.1-0.1-0.1-0.3-0.1-0.4v-9.5h-3c-0.3,0.1-0.5-0.1-0.6-0.3l0,0c0-0.1,0-0.2,0-0.2v-0.7c0-0.1,0-0.3,0.1-0.4
	c0.1-0.1,0.2-0.2,0.4-0.2h8c0.2,0,0.4,0.1,0.4,0.2c0,0.1,0.1,0.3,0.1,0.4v0.7c0,0.3,0,0.4-0.1,0.5S29.4,16,29.2,16L26.4,15.9"/>
<path id="Fill-3" class="letters" d="M12.7,14.2L12.7,14.2c-0.1-0.2-0.2-0.3-0.4-0.3h-1.1c-0.1,0-0.2,0.1-0.3,0.1
	c-0.1,0.1-0.2,0.3-0.1,0.4V15l3.8,5.6c0.3,0.4,0.5,0.8,0.9,1.3c0.3,0.5,0.9,1.3,1.3,1.9l0.4,0.6l0.9,1.4c0.1,0.1,0.2,0.2,0.4,0.2h1
	c0.1,0,0.2-0.1,0.3-0.1c0.1-0.1,0.1-0.2,0.1-0.3v-0.5L12.7,14.2"/>
</svg>
