<?xml version="1.0" encoding="utf-8"?>
<!-- Generator: Adobe Illustrator 22.0.1, SVG Export Plug-In . SVG Version: 6.00 Build 0)  -->
<svg width="58" height="58" version="1.1" id="Layer_1" xmlns="http://www.w3.org/2000/svg" xmlns:xlink="http://www.w3.org/1999/xlink" x="0px" y="0px"
	 viewBox="0 0 58 58" style="enable-background:new 0 0 58 58;" xml:space="preserve">
<style type="text/css">
	.st0{fill:none;stroke:#082229;stroke-width:2.5;stroke-miterlimit:10;}
	.st1{fill:#082229;}
</style>
<circle class="st0" cx="28.7" cy="29" r="27.3"/>
<title>Logo</title>
<desc>Created with Sketch.</desc>
<path id="Fill-2" class="st1" d="M38.4,24.6v14.2c0,0.2,0,0.4-0.1,0.6c-0.1,0.2-0.3,0.3-0.6,0.3h-1.6c-0.3,0-0.6-0.1-0.6-0.3
	c-0.1-0.2-0.1-0.4-0.1-0.6V24.6H31c-0.4,0-0.6-0.1-0.7-0.2c-0.1-0.1-0.2-0.3-0.2-0.7v-1.1c0-0.2,0-0.4,0.1-0.6
	c0.1-0.2,0.3-0.3,0.6-0.3h12c0.3,0,0.6,0.1,0.6,0.3c0.1,0.2,0.1,0.4,0.1,0.6v1.1c0,0.4,0,0.6-0.1,0.7c-0.1,0.1-0.3,0.2-0.7,0.2H38.4
	"/>
<path id="Fill-3" class="st1" d="M18,22L18,22c-0.1-0.2-0.3-0.4-0.6-0.4h-1.7c-0.2,0-0.4,0.1-0.5,0.2C15,22,15,22.2,15,22.4l0,0.9
	l5.7,8.4c0.4,0.6,0.8,1.2,1.3,1.9c0.6,0.9,1.3,1.9,1.9,2.8c0.2,0.3,0.4,0.6,0.6,0.9l1.4,2.1c0.1,0.2,0.3,0.3,0.6,0.3H28
	c0.2,0,0.4-0.1,0.5-0.2c0.1-0.1,0.2-0.3,0.2-0.5v-0.8L18,22"/>
</svg>
