<?xml version="1.0" encoding="UTF-8"?>
<svg width="40px" height="40px" viewBox="0 0 40 40" version="1.1" xmlns="http://www.w3.org/2000/svg" xmlns:xlink="http://www.w3.org/1999/xlink">
    <title>X</title>
    <g id="X" stroke="none" stroke-width="1" fill="none" fill-rule="evenodd">
        <rect id="Rectangle" x="0" y="0" width="40" height="40"></rect>
        <g id="Logo-blue" transform="translate(8.000000, 11.000000)" class="fillable" fill="#082229" fill-rule="nonzero">
            <path d="M22.440585,5.22789557 C22.4558196,5.45573118 22.4558196,5.6835668 22.4558196,5.91350229 C22.4558196,12.91971 17.296364,21 7.86207597,21 L7.86207597,20.9958003 C5.07515742,21 2.34613041,20.1747521 0,18.6187503 C0.405240707,18.6691471 0.812512696,18.6943455 1.22080033,18.6953955 C3.53036766,18.6974953 5.77391834,17.8963959 7.59089986,16.421239 C5.39609994,16.3781917 3.47146049,14.8988351 2.79910624,12.7391214 C3.56794637,12.8924118 4.36014625,12.8609138 5.11476742,12.6477772 C2.72191753,12.1480088 1.00040626,9.97464594 1.00040626,7.45060526 C1.00040626,7.42750672 1.00040626,7.40545811 1.00040626,7.38340951 C1.71338615,7.79393359 2.51167987,8.02176921 3.32825513,8.04696762 C1.07454804,6.4899159 0.379849685,3.39051155 1.74080845,0.967264505 C4.34491164,4.27980541 8.18708105,6.2935783 12.3115986,6.50671484 C11.8982328,4.66513109 12.4629291,2.7353529 13.7954499,1.44078462 C15.8612635,-0.566688669 19.1102986,-0.463795163 21.0522039,1.6707201 C22.2008938,1.43658488 23.3018485,1.00086238 24.3093642,0.383501353 C23.9264676,1.61087388 23.125127,2.65345807 22.0546415,3.31596625 C23.071298,3.19207407 24.0645948,2.91069183 25,2.48126894 C24.3113955,3.5480016 23.4440382,4.47719295 22.440585,5.22789557 Z" id="white_background"></path>
        </g>
    </g>
</svg>