<?xml version="1.0" encoding="UTF-8"?>
<svg id="Layer_1" data-name="Layer 1" xmlns="http://www.w3.org/2000/svg" version="1.1" viewBox="0 0 40 40" width="40" height="40">
  <defs>
    <style>
      .cls-1 {
        fill: none;
      }

      .cls-1, .cls-2 {
        stroke-width: 0px;
      }

      .cls-2 {
        fill: #000;
      }
    </style>
  </defs>
  <g id="X">
    <rect id="Rectangle" class="cls-1" y="0" width="40" height="40"/>
    <g id="X_icon" data-name="X icon">
      <path id="Path_2" data-name="Path 2" class="cls-2" d="M18.6,7.3c-7,.8-12.1,7.1-11.4,14.1,0,.8.2,1.5.4,2.2,2,6.8,9.1,10.7,15.9,8.7,6.8-2,10.7-9.1,8.7-15.9-1.3-4.4-4.8-7.8-9.3-8.8-1.4-.4-2.9-.5-4.4-.3ZM18.8,15.2c1.1,1.5,2,2.7,2.1,2.7s1.2-1.2,2.5-2.7l2.5-2.6h1.4l-.3.3c-.2.2-1.3,1.4-2.5,2.7s-2.4,2.5-2.6,2.8l-.4.4,3.2,4.3c1.8,2.4,3.2,4.3,3.2,4.3-.8,0-1.6,0-2.3,0h-2.3s-2.2-2.9-2.2-2.9c-.7-1-1.4-2-2.3-2.8,0,0-1.3,1.4-2.7,2.9l-2.6,2.8h-.7c-.2,0-.4,0-.7,0,0,0,1.4-1.5,3-3.3,1.7-1.8,3-3.3,3-3.3s-1.4-1.9-3-4.1-3-4.1-3-4.1,1.1,0,2.3,0h2.3l2,2.6Z"/>
      <path id="Path_3" data-name="Path 3" class="cls-2" d="M14.2,13.7c0,0,2.2,3,4.8,6.4l4.7,6.3h1.1c.7,0,1,0,1,0s-2.2-2.9-4.8-6.4l-4.7-6.3h-1.1c-.9,0-1.1,0-1,.1Z"/>
    </g>
  </g>
</svg>